<?xml version="1.0" encoding="utf-8"?>
<!-- Generator: Adobe Illustrator 23.0.3, SVG Export Plug-In . SVG Version: 6.00 Build 0)  -->
<svg version="1.1" id="Layer_1" xmlns="http://www.w3.org/2000/svg" xmlns:xlink="http://www.w3.org/1999/xlink" x="0px" y="0px"
	 viewBox="0 0 300 300" style="enable-background:new 0 0 300 300;" xml:space="preserve">
<style type="text/css">
	.st0{fill:#020202;}
</style>
<g>
	<path class="st0" d="M-251.76,178.02c43.9,0,74.87-33.59,74.87-74.87c0-41.29-33.59-74.87-74.87-74.87s-74.87,33.59-74.87,74.87
		C-326.63,144.43-293.04,178.02-251.76,178.02z M-306.59,103.14c0-30.24,24.6-54.83,54.83-54.83s54.83,24.6,54.83,54.83
		c0,30.24-24.6,54.83-54.83,54.83S-306.59,133.38-306.59,103.14z"/>
	<path class="st0" d="M-102.3,258.42c-2.01-8.81-5.19-17.14-8.29-25.25c-17.42-42.52-33.49-69.98-64.79-77.29
		c-5.58-1.4-11.52,0.8-15.14,5.59c-14.7,18.18-42.93,27.8-61.24,27.8c-18.21,0-45.57-9.58-60.59-27.72c-3.72-4.92-9.22-7-15.12-5.68
		c-30.97,7.33-48.03,34.79-65.86,77.35c-2.9,7.23-5.65,15.6-8.18,24.87c-0.97,3.09-0.23,6.93,1.71,8.99
		c1.83,2.56,4.74,4.03,8.03,4.03h280.01c3.72,0,6.77-1.81,8.19-4.86C-101.97,263.6-101.53,260.83-102.3,258.42z M-125.19,251.06
		h-252.85c1.22-3.84,2.35-7.14,3.48-10.16c13.88-34.36,25.28-57.77,48.58-64.58c18.86,21.59,50.9,32.98,74.22,32.98
		c23.32,0,56.35-11.4,75.2-32.98c23.3,6.81,33.72,30.21,47.6,64.55C-127.61,244.25-126.35,247.66-125.19,251.06z"/>
</g>
<g>
	<g>
		<path class="st0" d="M129.81,262.09C58.23,262.09,0,203.86,0,132.27S58.23,2.46,129.81,2.46s129.81,58.23,129.81,129.81
			S201.4,262.09,129.81,262.09z M129.81,25.98c-58.61,0-106.3,47.68-106.3,106.3s47.68,106.3,106.3,106.3s106.3-47.68,106.3-106.3
			S188.43,25.98,129.81,25.98z"/>
		<path class="st0" d="M288.23,297.54c-2.73,0-5.46-0.94-7.69-2.86l-77.9-67.35c-4.91-4.25-5.45-11.68-1.2-16.59
			c4.25-4.91,11.66-5.45,16.59-1.2l77.9,67.35c4.91,4.25,5.45,11.68,1.2,16.59C294.81,296.16,291.53,297.54,288.23,297.54z"/>
	</g>
	<path class="st0" d="M129.81,214.9c-45.56,0-82.62-37.06-82.62-82.62c0-6.49,5.27-11.76,11.76-11.76s11.76,5.27,11.76,11.76
		c0,32.59,26.51,59.1,59.1,59.1c6.49,0,11.76,5.27,11.76,11.76C141.57,209.63,136.31,214.9,129.81,214.9z"/>
</g>
<g>
	<path class="st0" d="M691.7,79.21H416.94c-6.97,0-12.62-5.65-12.62-12.62c0-6.97,5.65-12.62,12.62-12.62H691.7
		c6.97,0,12.62,5.65,12.62,12.62C704.32,73.56,698.67,79.21,691.7,79.21z"/>
	<path class="st0" d="M691.7,162.62H416.94c-6.97,0-12.62-5.65-12.62-12.62s5.65-12.62,12.62-12.62H691.7
		c6.97,0,12.62,5.65,12.62,12.62S698.67,162.62,691.7,162.62z"/>
	<path class="st0" d="M691.7,246.03H416.94c-6.97,0-12.62-5.65-12.62-12.62s5.65-12.62,12.62-12.62H691.7
		c6.97,0,12.62,5.65,12.62,12.62S698.67,246.03,691.7,246.03z"/>
</g>
<g>
	<path d="M1027.16,89.97l0-0.08c-0.25-5.41-4.68-9.66-10.1-9.66H974V55.9C974,23.42,947.59-3,915.12-3h-2.97
		c-32.47,0-58.88,26.42-58.88,58.9v24.32h-38.63c-5.42,0-9.86,4.24-10.1,9.67l-8.94,202.57c-0.11,2.77,0.91,5.48,2.77,7.38
		c1.9,2,4.57,3.15,7.33,3.15h220.3c2.77,0,5.44-1.15,7.3-3.13c1.88-1.97,2.9-4.67,2.8-7.43L1027.16,89.97z M816.25,282.8
		l8.05-182.34h28.95v23.73c-4.33,1.14-7.53,5.09-7.53,9.77c0,5.57,4.53,10.1,10.1,10.1h15.05c5.57,0,10.1-4.53,10.1-10.1
		c0-4.68-3.2-8.63-7.53-9.77v-23.73h80.33v23.73c-4.33,1.14-7.53,5.09-7.53,9.77c0,5.57,4.53,10.1,10.1,10.1h15.06
		c5.57,0,10.1-4.53,10.1-10.1c0-4.68-3.2-8.63-7.53-9.77v-23.73h33.37l8.07,182.34H816.25z M912.15,17.23h2.97
		c21.33,0,38.68,17.35,38.68,38.68v24.32h-80.33V55.9C873.47,34.58,890.82,17.23,912.15,17.23z"/>
	<path d="M893.99,215.28c4.73-4.41,8.63-9.25,11.7-14.51c3.08-5.26,4.61-10.51,4.61-15.73c0-6.64-2.07-11.96-6.2-15.94
		c-4.13-3.99-10.05-5.99-17.74-5.99c-7.56,0-13.8,2.28-18.75,6.83c-4.94,4.56-7.63,11.25-8.05,20.08h14.51
		c0.43-9.54,4.13-14.3,11.13-14.3c3.39,0,5.88,0.96,7.47,2.86c1.59,1.9,2.38,4.52,2.38,7.84c0,10.95-11.97,24.72-35.91,41.32v11.12
		h52.65v-12.18h-32.74C884.28,223.49,889.26,219.69,893.99,215.28z"/>
	<path d="M948.76,163.53c-19.07,0-28.6,12.64-28.6,37.93c0,25.35,9.54,38.03,28.6,38.03c10.09,0,17.37-3.39,21.82-10.17
		c4.45-6.78,6.67-16.07,6.67-27.86c0-11.72-2.23-20.98-6.67-27.76C966.13,166.92,958.85,163.53,948.76,163.53z M959.73,219.2
		c-1.87,4.13-5.53,6.19-10.97,6.19c-5.51,0-9.2-2.07-11.07-6.19c-1.87-4.13-2.8-10.05-2.8-17.74c0-7.63,0.94-13.51,2.8-17.64
		c1.87-4.13,5.56-6.2,11.07-6.2c5.44,0,9.09,2.07,10.97,6.2c1.87,4.13,2.8,10.01,2.8,17.64
		C962.53,209.15,961.59,215.07,959.73,219.2z"/>
</g>
<g id="BtZO2L_1_">
	<g>
		<path d="M1394.74,300.27c-50.47,0-100.93,0-151.4,0c-1.04-0.42-2.05-1.07-3.13-1.23c-23.14-3.33-41.26-14.89-55.28-33.36
			c-8.96-11.8-12.89-25.55-15.89-39.71c0-50.93,0-101.87,0-152.8c0.42-1.04,1.06-2.05,1.23-3.12c6.44-40.66,39.91-69.81,81.15-70.05
			c45.09-0.26,90.19-0.46,135.27,0.07c34.84,0.41,59.79,17.45,74.76,48.63c3.66,7.62,5.12,16.29,7.58,24.47
			c0,50.93,0,101.87,0,152.8c-0.4,1.07-0.98,2.1-1.16,3.2c-4.51,28.55-19.85,49.41-45.55,62.13
			C1413.75,295.55,1403.97,297.35,1394.74,300.27z M1442.39,149.77c0-22.66,0.22-45.33-0.05-67.99
			c-0.36-29.69-22.83-54.39-52.52-55.04c-47.16-1.03-94.39-1.03-141.55,0c-29.69,0.65-52.32,25.35-52.5,55.03
			c-0.28,45.56-0.29,91.12,0.02,136.67c0.2,30.54,24.97,54.95,55.62,55.08c45.09,0.2,90.18,0.2,135.27,0
			c30.66-0.14,55.26-24.53,55.64-55.08C1442.6,195.56,1442.37,172.66,1442.39,149.77z"/>
		<path d="M1319.16,72.78c42.86,0.07,77.18,34.65,77.03,77.64c-0.15,42.32-34.99,77.02-77.28,76.96
			c-42.57-0.07-77.22-35.11-77.03-77.9C1242.07,106.95,1276.58,72.71,1319.16,72.78z M1369.6,150.08c0.04-28.2-22.39-50.89-50.42-51
			c-27.97-0.11-50.66,22.58-50.72,50.71c-0.06,28.26,22.35,50.87,50.42,50.89C1347.1,200.7,1369.56,178.29,1369.6,150.08z"/>
		<path d="M1380.4,69.29c0.08-10.77,8.3-19.09,18.98-19.2c10.96-0.12,19.46,8.39,19.42,19.45c-0.04,10.97-8.68,19.37-19.69,19.15
			C1388.39,88.47,1380.32,80.1,1380.4,69.29z"/>
	</g>
</g>
</svg>
